<svg xmlns="http://www.w3.org/2000/svg" viewBox="0 0 320 320" role="img" aria-label="Coffee">
  <defs>
    <linearGradient id="stage" x1="24" y1="18" x2="296" y2="302" gradientUnits="userSpaceOnUse">
      <stop stop-color="#ffffff" stop-opacity="0.48"/>
      <stop offset="0.5" stop-color="#eae6ef"/>
      <stop offset="1" stop-color="#5b4a6b" stop-opacity="0.14"/>
    </linearGradient>
    <radialGradient id="glow" cx="0" cy="0" r="1" gradientTransform="translate(86 58) rotate(48) scale(196)">
      <stop stop-color="#9b7fc9" stop-opacity="0.24"/>
      <stop offset="1" stop-color="#9b7fc9" stop-opacity="0"/>
    </radialGradient>
    <filter id="shadow" x="-30%" y="-30%" width="160%" height="180%">
      <feDropShadow dx="0" dy="14" stdDeviation="12" flood-color="#1c120c" flood-opacity="0.22"/>
    </filter>
  </defs>
  <rect width="320" height="320" fill="url(#stage)"/>
  <rect width="320" height="320" fill="url(#glow)"/>
  <circle cx="276" cy="46" r="54" fill="#ffffff" opacity="0.16"/>
  <ellipse cx="160" cy="276" rx="78" ry="12" fill="#1c120c" opacity="0.12"/>
  <g filter="url(#shadow)">
    <path d="M102 94h116l-8 170c-.5 10-8.8 18-18.8 18h-62.4c-10 0-18.3-8-18.8-18L102 94Z" fill="#5b4a6b"/>
    <path d="M102 94h116l-2 36H104l-2-36Z" fill="#463752"/>
    <path d="M118 111h84" stroke="#ffffff" stroke-opacity="0.26" stroke-width="2"/>
    <path d="M194 130h22l-6 134c-.5 10-8.8 18-18.8 18H180c11-4 14-12 14-25V130Z" fill="#000000" opacity="0.08"/>
    <rect x="119" y="151" width="82" height="87" rx="14" fill="#fffaf2"/>
    <text x="160" y="169" text-anchor="middle" fill="#463752" font-size="8" font-family="Arial, sans-serif" font-weight="700" letter-spacing="1.6">ROAST</text>
    <ellipse cx="160" cy="191" rx="15" ry="19" fill="#9b7fc9"/>
    <path d="M160 174c8 17-8 19 0 34" stroke="#fffaf2" stroke-width="3" fill="none" stroke-linecap="round"/>
    <path d="M137 220h46" stroke="#463752" stroke-opacity="0.34" stroke-width="3" stroke-linecap="round"/>
    <path d="M145 227h30" stroke="#463752" stroke-opacity="0.2" stroke-width="2" stroke-linecap="round"/>
  </g>
  <g fill="#463752" opacity="0.7">
    <ellipse cx="74" cy="252" rx="8" ry="11" transform="rotate(-34 74 252)"/>
    <ellipse cx="245" cy="246" rx="7" ry="10" transform="rotate(28 245 246)"/>
  </g>
</svg>
