<svg xmlns="http://www.w3.org/2000/svg" viewBox="0 0 320 320" role="img" aria-label="Sneaker">
  <defs>
    <linearGradient id="stage" x1="24" y1="18" x2="296" y2="302" gradientUnits="userSpaceOnUse">
      <stop stop-color="#ffffff" stop-opacity="0.48"/>
      <stop offset="0.5" stop-color="#fdeaf2"/>
      <stop offset="1" stop-color="#ff2e83" stop-opacity="0.14"/>
    </linearGradient>
    <radialGradient id="glow" cx="0" cy="0" r="1" gradientTransform="translate(86 58) rotate(48) scale(196)">
      <stop stop-color="#200b16" stop-opacity="0.24"/>
      <stop offset="1" stop-color="#200b16" stop-opacity="0"/>
    </radialGradient>
    <filter id="shadow" x="-30%" y="-30%" width="160%" height="180%">
      <feDropShadow dx="0" dy="14" stdDeviation="12" flood-color="#1c120c" flood-opacity="0.22"/>
    </filter>
  </defs>
  <rect width="320" height="320" fill="url(#stage)"/>
  <rect width="320" height="320" fill="url(#glow)"/>
  <circle cx="276" cy="46" r="54" fill="#ffffff" opacity="0.16"/>
  <ellipse cx="162" cy="253" rx="118" ry="13" fill="#111827" opacity="0.12"/>
  <g filter="url(#shadow)" transform="rotate(-5 160 190)">
    <path d="M53 207c34-7 57-31 78-79l45 20c18 8 30 26 51 33l43 15c8 3 14 11 14 20v9H50v-10c0-4 1-6 3-8Z" fill="#ff2e83"/>
    <path d="M131 128l45 20c13 6 23 17 35 25l-25 25-67-30 12-40Z" fill="#d60f63"/>
    <path d="m126 169 61 27-13 17-65-28 17-16Z" fill="#ffffff" opacity="0.9"/>
    <g stroke="#ffffff" stroke-width="5" stroke-linecap="round">
      <path d="m146 150 27 12"/>
      <path d="m139 161 28 12"/>
      <path d="m133 172 27 12"/>
    </g>
    <path d="M49 216h236v17c0 8-7 15-15 15H65c-9 0-16-7-16-16v-16Z" fill="#fff"/>
    <path d="M63 233h198" stroke="#200b16" stroke-opacity="0.42" stroke-width="4" stroke-linecap="round" stroke-dasharray="7 8"/>
  </g>
</svg>
